<?xml version="1.0" encoding="UTF-8" standalone="no"?>
<svg xmlns="http://www.w3.org/2000/svg" width="1200" height="400" viewBox="0 0 1200 400" version="1.1">

<g transform="translate(210,200) scale(2.0) translate(-100,-75)">
<g>
<path d="M40,80 C25,80 15,69 15,56 C15,44 24,34 36,33 C40,19 53,10 68,10 C84,10 98,21 101,37 C116,38 128,50 128,65 C128,74 123,81 115,84 L40,84 Z" fill="#2AA8E7" opacity="0.95"/>
<path d="M55,86 C44,86 36,78 36,68 C36,58 43,51 52,49 C55,38 65,30 77,30 C90,30 101,40 103,52 C115,53 124,62 124,73 C124,80 120,86 112,88 L55,88 Z" fill="#4FC3FF" opacity="0.95"/>
<path d="M66,96 C59,96 54,91 54,85 C54,79 58,74 64,73 C66,66 72,61 80,61 C88,61 95,67 96,75 C104,76 109,81 109,88 C109,92 106,96 101,97 L66,97 Z" fill="#167DB5" opacity="0.98"/>
</g>
<g transform="translate(22,18) rotate(-28 28 28)">
<rect x="22" y="22" width="12" height="12" rx="2.5" fill="#4FC3FF" opacity="0.95"/>
<rect x="4" y="23" width="16" height="10" rx="2" fill="#4FC3FF" opacity="0.85"/>
<rect x="36" y="23" width="16" height="10" rx="2" fill="#4FC3FF" opacity="0.85"/>
<line x1="8" y1="24" x2="8" y2="32" stroke="#0f5f86" stroke-width="0.8" opacity="0.55"/>
<line x1="12" y1="24" x2="12" y2="32" stroke="#0f5f86" stroke-width="0.8" opacity="0.55"/>
<line x1="16" y1="24" x2="16" y2="32" stroke="#0f5f86" stroke-width="0.8" opacity="0.55"/>
<line x1="40" y1="24" x2="40" y2="32" stroke="#0f5f86" stroke-width="0.8" opacity="0.55"/>
<line x1="44" y1="24" x2="44" y2="32" stroke="#0f5f86" stroke-width="0.8" opacity="0.55"/>
<line x1="48" y1="24" x2="48" y2="32" stroke="#0f5f86" stroke-width="0.8" opacity="0.55"/>
<path d="M28,20 C30,18 32,18 34,20" stroke="#4FC3FF" stroke-width="2" fill="none" opacity="0.8"/>
<path d="M36,16 C40,12 46,12 50,16" stroke="#4FC3FF" stroke-width="2" fill="none" opacity="0.55"/>
<path d="M39,13 C43,9 48,9 52,13" stroke="#4FC3FF" stroke-width="2" fill="none" opacity="0.35"/>
</g>
<g transform="translate(118,58)">
<path d="M0,20 A20,20 0 0 1 20,0 L25,5 A27,27 0 0 0 5,25 Z" fill="#4FC3FF" opacity="0.95"/>
<circle cx="18" cy="2" r="3" fill="#4FC3FF" opacity="0.95"/>
<path d="M7,23 L-2,35" stroke="#4FC3FF" stroke-width="4" stroke-linecap="round" opacity="0.9"/>
<path d="M-2,35 L12,35" stroke="#4FC3FF" stroke-width="4" stroke-linecap="round" opacity="0.9"/>
<path d="M22,2 C30,4 34,8 36,16" stroke="#4FC3FF" stroke-width="2" fill="none" opacity="0.55"/>
<path d="M24,-1 C34,2 40,8 43,20" stroke="#4FC3FF" stroke-width="2" fill="none" opacity="0.35"/>
</g>
</g>

<g font-family="Montserrat, Arial, sans-serif" font-weight="700">
  <text x="420" y="210" font-size="120" fill="#FFFFFF">Cloud</text>
  <text x="690" y="210" font-size="120" fill="#2AA8E7">Scale</text>
</g>
<g font-family="Montserrat, Arial, sans-serif" font-weight="600" letter-spacing="4">
  <text x="420" y="275" font-size="28" fill="#8FA8B8" opacity="0.9">IOT INSIGHTS INTO</text>
  <text x="420" y="312" font-size="28" fill="#8FA8B8" opacity="0.9">PERIPHERAL DATA</text>
</g>

</svg>
